# xmcd CD database file
#
# Track frame offsets:
#	150
#	651
#	20930
#	39478
#	57777
#	79033
#	95334
#	111626
#	126027
#
# Disc length: 1875 seconds
#
# Revision: 1
# Processed by: cddbd v1.5.2PL0 Copyright (c) Steve Scherf et al.
# Submitted via: CDex 1.51
#
DISCID=6f075109
DTITLE=Koo Jo - 谷祖琳
DYEAR=2002
DGENRE=流行曲
TTITLE0=Data Track
TTITLE1=我有權投MV
TTITLE2=六壯士 
TTITLE3=我有權投
TTITLE4=愿望樹 
TTITLE5=謝謝月亮
TTITLE6=同機蜜友 
TTITLE7=除了你 
TTITLE8=殘酷劇場 
EXTD=YEAR: 2002
EXTT0=
EXTT1=
EXTT2=
EXTT3=
EXTT4=
EXTT5=
EXTT6=
EXTT7=
EXTT8=
PLAYORDER=
